<svg xmlns="http://www.w3.org/2000/svg" width="295" height="291" fill="none"><g clip-path="url(#a)" filter="url(#b)"><g filter="url(#c)"><ellipse cx="147.5" cy="271.181" fill="#D9D9D9" rx="142.6" ry="7.251"/></g><path fill="#EBEBEB" d="M22.568 246.71v14.608h3.37a20.26 20.26 0 0 1 0-4.627c.32-1.717 3.98-6.152 3.87-9.958l-7.24-.023Z"/><path fill="#E0E0E0" d="M49.526 246.71v14.608h3.37a20.26 20.26 0 0 1 0-4.627c.32-1.717 3.98-6.152 3.87-9.958l-7.24-.023Z"/><path fill="#EBEBEB" d="M75.914 246.71v14.608h-3.376c.174-1.537.174-3.09 0-4.627-.325-1.717-3.98-6.152-3.876-9.958l7.252-.023Z"/><path fill="#E0E0E0" d="M99.24 246.71v14.608h-3.37c.174-1.537.174-3.09 0-4.627-.32-1.717-3.98-6.152-3.87-9.958l7.24-.023Z"/><path fill="#F5F5F5" d="M101.01 174.676H20.275v72.5h80.735v-72.5Z"/><path fill="#E0E0E0" d="m79.26 174.676.6 72.5h21.15v-72.5H79.26Z"/><path fill="#EBEBEB" d="M75.74 180.013H23.906v18.449h51.832v-18.449ZM75.74 202.135H23.906v18.449h51.832v-18.449ZM75.74 224.262H23.906v18.449h51.832v-18.449Z"/><path fill="#E0E0E0" d="m43.776 153.846-2.235 20.748h28.646l2.375-20.748H43.776Z"/><path fill="#fff" d="m44.957 155.336-2.176 18.152h25.852l2.09-18.152H44.957Z"/><path fill="#EBEBEB" d="m49.305 158.391-1.338 12.048H64.28l.838-12.048H49.305ZM71.537 162.78l5.92 11.896-7.27-.082 1.35-11.814Z"/><path fill="#E0E0E0" d="M51.72 190.198a1.894 1.894 0 0 1-1.167 1.757 1.898 1.898 0 1 1 1.167-1.757ZM51.72 212.547a1.898 1.898 0 1 1-3.796 0 1.898 1.898 0 0 1 3.796 0ZM51.72 234.89a1.898 1.898 0 1 1-3.796 0 1.898 1.898 0 0 1 3.796 0ZM75.658 56.82l-45.774-.442 1.274 59.655 45.775.169-1.275-59.381Z"/><path fill="#FAFAFA" d="m72.707 59.48-40.07-1.036 1.158 54.103 40.059.495-1.147-53.562Z"/><path fill="#EBEBEB" d="m65.869 67.564-26.592-.442.815 37.818 26.562-.57-.785-36.806Z"/><path fill="#F5F5F5" d="m40.092 104.94 26.15-19.997-26.965-17.82.815 37.817Z"/><path fill="#E0E0E0" d="m272.636 25.724-40.164-.39 1.123 52.34 40.153.145-1.112-52.095Z"/><path fill="#FAFAFA" d="m270.04 28.064-35.153-.914 1.019 47.462 35.141.431-1.007-46.979Z"/><path fill="#EBEBEB" d="m264.04 35.153-23.321-.39.71 33.174 23.303-.495-.692-32.29Z"/><path fill="#F5F5F5" d="m241.429 67.937 22.942-17.541-23.652-15.633.71 33.174Z"/><path fill="#EBEBEB" d="M227.647 222.499c-.168.512 5.82 23.28 5.82 23.28l4.109-.856-5.651-22.424h-4.278Z"/><path fill="#F5F5F5" d="m259.489 219.245-8.218 26.533h4.795l7.875-24.647-4.452-1.886Z"/><path fill="#EBEBEB" d="m267.02 215.136-9.417 30.643h4.795l9.074-28.757-4.452-1.886Z"/><path fill="#E0E0E0" d="m230.557 243.899 4.796 16.604h24.136l4.452-16.604h-33.384Z"/><path fill="#E0E0E0" d="M243.006 243.899a1.527 1.527 0 0 1-.052-.175l-.128-.506c-.111-.466-.262-1.123-.46-1.961l-1.659-7.252-5.418-24.182.146.122h-4.226l.146-.186c2.147 9.515 4.074 18.042 5.453 24.199a5688.79 5688.79 0 0 0 1.606 7.275c.175.844.32 1.502.419 1.973.041.216.076.384.099.512a.55.55 0 0 1 0 .181 1.527 1.527 0 0 1-.052-.175c-.035-.128-.076-.297-.128-.506-.116-.466-.274-1.123-.477-1.961-.402-1.746-.978-4.197-1.694-7.252-1.414-6.158-3.364-14.672-5.541-24.182l-.046-.181h4.54l.029.117c2.089 9.515 3.969 18.042 5.325 24.199.658 3.067 1.193 5.541 1.565 7.275.175.844.309 1.502.408 1.973l.099.512a.575.575 0 0 1 .046.181Z"/><path fill="#263238" d="M266.595 261.196c0 .081-55.255.151-123.384.151-68.13 0-123.384-.07-123.384-.151 0-.082 55.243-.152 123.413-.152 68.169 0 123.355.07 123.355.152ZM250.706 102.345a2.864 2.864 0 0 0-1.676-.128c-.674.173-1.3.495-1.833.943a9.688 9.688 0 0 0-1.863 2.17c-1.193 1.828-2.13 4.354-3.224 7.299a106.605 106.605 0 0 0-3.282 10.26 2.958 2.958 0 0 1-.676.844 1.336 1.336 0 0 1-1.059.338 1.984 1.984 0 0 1-.972-.582c-.273-.25-.529-.518-.785-.792a18.835 18.835 0 0 0-1.613-1.571 2.976 2.976 0 0 0-2.042-.832 2.75 2.75 0 0 0-1.869 1.245 4.74 4.74 0 0 0-.646 2.328c-.099 1.665.384 3.347.675 5.087.291 1.74.658 3.527.996 5.348.174.914.343 1.834.518 2.765l.262 1.408a1.815 1.815 0 0 1-.169 1.49.716.716 0 0 1-.347.251.715.715 0 0 1-.427.011 2.036 2.036 0 0 1-.693-.355l-1.164-.885a27.749 27.749 0 0 0-2.468-1.664 9.542 9.542 0 0 0-2.758-1.164 3.19 3.19 0 0 0-1.467 0c-.48.121-.904.405-1.199.803a4.912 4.912 0 0 0-.785 2.91c.001 1.059.105 2.115.308 3.155a40.07 40.07 0 0 0 1.775 6.274c.222.521.391 1.063.506 1.617a1.164 1.164 0 0 1-.215.903 1.49 1.49 0 0 1-.169.168.653.653 0 0 1-.227.134.71.71 0 0 1-.506-.116 8.404 8.404 0 0 1-1.344-1.071l-1.246-1.164a18.503 18.503 0 0 0-2.648-2.13 5.499 5.499 0 0 0-1.531-.699 1.901 1.901 0 0 0-1.554.192 2.255 2.255 0 0 0-.878 1.351 6.852 6.852 0 0 0-.21 1.699c.006 1.177.152 2.35.437 3.492a30.052 30.052 0 0 0 2.531 6.687 50.362 50.362 0 0 0 3.766 6.257 33.905 33.905 0 0 0 2.27 2.91c.779.966 1.571 1.926 2.363 2.91v.035l-.14-.058 3.701-.536a35.705 35.705 0 0 0 3.649-.628 51.627 51.627 0 0 0 6.984-2.101 30.49 30.49 0 0 0 6.373-3.254 14.272 14.272 0 0 0 2.66-2.275c.39-.424.724-.895.995-1.403.278-.48.369-1.046.256-1.589a1.882 1.882 0 0 0-1.018-1.193 5.813 5.813 0 0 0-1.601-.512 18.88 18.88 0 0 0-3.393-.204h-1.699a8.58 8.58 0 0 1-1.746-.11.69.69 0 0 1-.454-.257.655.655 0 0 1-.076-.256 1.052 1.052 0 0 1 0-.238 1.201 1.201 0 0 1 .448-.809 8.837 8.837 0 0 1 1.461-.856 39.534 39.534 0 0 0 5.535-3.451 15.772 15.772 0 0 0 2.328-2.13 4.914 4.914 0 0 0 1.374-2.677 2.155 2.155 0 0 0-.35-1.403 3.157 3.157 0 0 0-1.082-.989 9.428 9.428 0 0 0-2.811-1.007 26.81 26.81 0 0 0-2.945-.425l-1.467-.14a1.898 1.898 0 0 1-.751-.203.734.734 0 0 1-.389-.722 1.841 1.841 0 0 1 .878-1.211l1.164-.861 2.241-1.705 4.33-3.289c1.391-1.088 2.875-2.008 3.923-3.311a4.704 4.704 0 0 0 1.071-2.142 2.753 2.753 0 0 0-.547-2.182 1.978 1.978 0 0 0-.949-.582 4.557 4.557 0 0 0-1.123-.187c-.75-.019-1.5.008-2.247.082-.372 0-.745.052-1.111.058a1.969 1.969 0 0 1-1.1-.239 1.335 1.335 0 0 1-.582-.96 3.054 3.054 0 0 1 .064-1.082 106.272 106.272 0 0 0 4.51-9.702c1.164-2.91 2.171-5.413 2.532-7.566a9.92 9.92 0 0 0 .116-2.852 4.535 4.535 0 0 0-.681-1.944 2.68 2.68 0 0 0-1.286-1.071c.141.038.276.095.402.169.374.214.693.513.931.873.38.592.621 1.263.704 1.961a9.8 9.8 0 0 1-.087 2.881c-.349 2.159-1.339 4.656-2.497 7.566a105.877 105.877 0 0 1-4.435 9.818c-.08.328-.1.667-.058 1.001a1.174 1.174 0 0 0 .477.833c.304.16.647.231.99.203.36 0 .727-.035 1.1-.064a18.389 18.389 0 0 1 2.275-.087c.395.016.786.08 1.164.192.4.107.763.322 1.048.623.253.326.436.702.537 1.102.1.401.115.819.045 1.226a4.85 4.85 0 0 1-1.118 2.246c-1.076 1.339-2.572 2.27-3.951 3.364l-4.325 3.294-2.235 1.7-1.134.867a2.638 2.638 0 0 0-.518.454 1.194 1.194 0 0 0-.268.582.48.48 0 0 0 .262.477c.205.1.429.157.657.169l1.467.14a26.02 26.02 0 0 1 2.968.425 9.783 9.783 0 0 1 2.91 1.03c.464.267.862.635 1.164 1.076.304.463.443 1.015.396 1.566a5.23 5.23 0 0 1-1.438 2.84c-.722.8-1.522 1.527-2.386 2.171a40.194 40.194 0 0 1-5.57 3.492 8.33 8.33 0 0 0-1.408.815.9.9 0 0 0-.349.791c0 .047 0 .158.041.152a.494.494 0 0 0 .267.122c.547.088 1.1.123 1.653.105h1.7a18.136 18.136 0 0 1 3.445.203 5.736 5.736 0 0 1 1.688.542 2.193 2.193 0 0 1 1.164 1.379c.132.611.032 1.25-.279 1.793a7.028 7.028 0 0 1-1.036 1.46 14.596 14.596 0 0 1-2.713 2.328 30.221 30.221 0 0 1-6.436 3.289 51.135 51.135 0 0 1-7.043 2.118c-1.208.274-2.43.484-3.66.629l-3.708.541h-.087l-.052-.07h-.03l-2.363-2.91a35.711 35.711 0 0 1-2.275-2.91 50.6 50.6 0 0 1-3.795-6.303 30.508 30.508 0 0 1-2.543-6.757 14.513 14.513 0 0 1-.448-3.544c0-.601.075-1.199.221-1.781a2.548 2.548 0 0 1 1.001-1.513 2.19 2.19 0 0 1 1.793-.233 5.808 5.808 0 0 1 1.606.733 18.473 18.473 0 0 1 2.689 2.165l1.245 1.164c.396.385.829.73 1.292 1.03.083.06.183.093.285.093 0 0 .088-.052.128-.081l.128-.128a.884.884 0 0 0 .152-.687 8.129 8.129 0 0 0-.489-1.554 40.169 40.169 0 0 1-1.781-6.32 16.526 16.526 0 0 1-.308-3.207 5.189 5.189 0 0 1 .849-3.073 2.436 2.436 0 0 1 1.339-.896 3.467 3.467 0 0 1 1.589 0 9.75 9.75 0 0 1 2.834 1.164 25.63 25.63 0 0 1 2.491 1.682l1.164.884c.173.141.371.249.582.32a.478.478 0 0 0 .518-.174c.115-.174.181-.375.192-.582a2.52 2.52 0 0 0-.076-.687c-.087-.472-.168-.937-.256-1.403-.174-.931-.343-1.856-.512-2.764-.332-1.828-.663-3.609-.983-5.349-.321-1.74-.769-3.428-.67-5.145.017-.85.254-1.682.687-2.415a2.954 2.954 0 0 1 2.031-1.339c.412-.033.826.049 1.193.239.358.173.692.39.996.646.575.497 1.119 1.03 1.629 1.595.248.271.505.533.768.785.237.251.54.431.873.518a1.156 1.156 0 0 0 .914-.296c.255-.22.468-.485.629-.78a104.592 104.592 0 0 1 3.329-10.273c1.106-2.939 2.06-5.47 3.276-7.298a9.691 9.691 0 0 1 1.898-2.177 4.601 4.601 0 0 1 1.868-.931 2.795 2.795 0 0 1 1.28 0c.17.021.336.07.489.146Z"/><path fill="#263238" d="M247.651 110.26a.689.689 0 0 1-.059.192l-.197.547c-.193.495-.46 1.199-.798 2.09-.71 1.833-1.717 4.458-2.962 7.688l-9.667 25.398c-3.76 9.894-7.205 18.898-9.755 25.37-1.268 3.236-2.328 5.849-3.049 7.653-.361.885-.646 1.577-.85 2.066-.099.227-.169.402-.227.541l-.087.175a.67.67 0 0 1 .058-.186c.047-.14.116-.32.198-.547.192-.501.46-1.199.797-2.096.71-1.833 1.717-4.452 2.963-7.682l9.667-25.387c3.759-9.923 7.199-18.892 9.754-25.363 1.269-3.236 2.328-5.855 3.05-7.654.36-.884.646-1.583.849-2.072.099-.221.169-.401.227-.535l.088-.198Z"/><path fill="#263238" d="M247.965 130.368c-.46.33-.947.62-1.455.867l-3.562 1.979c-1.397.774-2.666 1.467-3.603 1.938a7.926 7.926 0 0 1-1.553.675 11.78 11.78 0 0 1 1.455-.867l3.55-2.008a83.45 83.45 0 0 1 3.614-1.909 8.885 8.885 0 0 1 1.554-.675ZM237.32 135.455c-.076.035-1.461-2.607-3.09-5.902-1.63-3.294-2.91-5.994-2.823-6.035.087-.041 1.461 2.607 3.096 5.902 1.636 3.294 2.893 5.994 2.817 6.035ZM232.233 150.953a8.46 8.46 0 0 1-1.28-1.164c-.757-.756-1.746-1.833-2.823-3.078a43.282 43.282 0 0 1-2.566-3.295 8.148 8.148 0 0 1-.937-1.455c.399.416.769.859 1.106 1.327.663.838 1.577 1.985 2.63 3.225 1.054 1.239 2.031 2.328 2.741 3.125a11.4 11.4 0 0 1 1.129 1.315ZM242.878 148.451a8.737 8.737 0 0 1-1.536.454c-.955.238-2.282.547-3.748.873-1.467.326-2.806.582-3.772.791a8.216 8.216 0 0 1-1.583.239 8.562 8.562 0 0 1 1.537-.448c.954-.239 2.281-.582 3.754-.879 1.472-.297 2.799-.582 3.765-.786a8.644 8.644 0 0 1 1.583-.244ZM240.125 162.71c-.646.223-1.307.4-1.978.529-1.234.286-2.91.664-4.819 1.06-1.909.395-3.603.745-4.843.977-.664.159-1.339.266-2.019.32a13.78 13.78 0 0 1 1.979-.529c1.228-.285 2.91-.664 4.819-1.059 1.909-.396 3.596-.745 4.836-.978a13.21 13.21 0 0 1 2.025-.32ZM226.768 165.433a2.272 2.272 0 0 1-.436-.395c-.268-.268-.64-.664-1.1-1.164a85.033 85.033 0 0 1-6.612-8.265 35.265 35.265 0 0 1-.896-1.327 2.078 2.078 0 0 1-.291-.518c.146.134.275.284.384.449l.978 1.274c.815 1.077 1.95 2.561 3.242 4.167a210.591 210.591 0 0 0 3.358 4.074c.495.538.953 1.108 1.373 1.705Z"/><path fill="#2196F3" d="M220.948 204.422c-10.103-8.148-11.57-22.076-10.301-34.42.215-2.06.134-4.254 1.24-6 1.105-1.746 3.492-2.823 5.278-1.828 1.485.827 2.026 2.66 2.782 4.191a12.131 12.131 0 0 0 4.528 4.958c1.269.774 2.87 1.304 4.214.675 1.851-.861 2.229-3.305 2.357-5.36l.716-11.488c.128-2.061.268-4.156 1.042-6.059.774-1.903 2.328-3.62 4.301-4.039 1.973-.419 4.33.884 4.603 2.91a18.73 18.73 0 0 1-.116 2.561c0 .855.332 1.827 1.123 2.118.792.291 1.665-.227 2.328-.786 2.264-1.926 3.882-4.498 5.413-7.065 1.53-2.567 3.015-5.197 5.098-7.327 2.084-2.131 4.86-3.743 7.816-3.708 2.957.035 5.96 2.066 6.507 5.005.547 2.939-1.344 5.774-3.346 7.991a45.953 45.953 0 0 1-10.197 8.457 3.767 3.767 0 0 0-1.746 1.606c-.541 1.339.663 2.788 1.985 3.335 1.495.611 3.172.582 4.76.867 1.589.285 3.277 1.123 3.778 2.677.698 2.159-1.211 4.237-3.038 5.564a39.466 39.466 0 0 1-12.03 5.925c-1.554.448-3.178.821-4.47 1.798-1.292.978-2.154 2.776-1.513 4.272.64 1.496 2.496 2.095 4.074 1.909 1.577-.186 3.078-.948 4.627-1.414 2.91-.873 6.53-.425 8.148 2.136 1.076 1.688 1.03 3.928.296 5.82a15.045 15.045 0 0 1-3.463 4.865 39.574 39.574 0 0 1-17.681 10.698c-6.704 1.821-12.804 2.019-19.159-.809"/><path fill="#000" d="M220.948 204.422c-10.103-8.148-11.57-22.076-10.301-34.42.215-2.06.134-4.254 1.24-6 1.105-1.746 3.492-2.823 5.278-1.828 1.485.827 2.026 2.66 2.782 4.191a12.131 12.131 0 0 0 4.528 4.958c1.269.774 2.87 1.304 4.214.675 1.851-.861 2.229-3.305 2.357-5.36l.716-11.488c.128-2.061.268-4.156 1.042-6.059.774-1.903 2.328-3.62 4.301-4.039 1.973-.419 4.33.884 4.603 2.91a18.73 18.73 0 0 1-.116 2.561c0 .855.332 1.827 1.123 2.118.792.291 1.665-.227 2.328-.786 2.264-1.926 3.882-4.498 5.413-7.065 1.53-2.567 3.015-5.197 5.098-7.327 2.084-2.131 4.86-3.743 7.816-3.708 2.957.035 5.96 2.066 6.507 5.005.547 2.939-1.344 5.774-3.346 7.991a45.953 45.953 0 0 1-10.197 8.457 3.767 3.767 0 0 0-1.746 1.606c-.541 1.339.663 2.788 1.985 3.335 1.495.611 3.172.582 4.76.867 1.589.285 3.277 1.123 3.778 2.677.698 2.159-1.211 4.237-3.038 5.564a39.466 39.466 0 0 1-12.03 5.925c-1.554.448-3.178.821-4.47 1.798-1.292.978-2.154 2.776-1.513 4.272.64 1.496 2.496 2.095 4.074 1.909 1.577-.186 3.078-.948 4.627-1.414 2.91-.873 6.53-.425 8.148 2.136 1.076 1.688 1.03 3.928.296 5.82a15.045 15.045 0 0 1-3.463 4.865 39.574 39.574 0 0 1-17.681 10.698c-6.704 1.821-12.804 2.019-19.159-.809" opacity=".1"/><path fill="#263238" d="M220.157 213.594a90.712 90.712 0 0 1 4.516-16.698 185.075 185.075 0 0 1 8.666-19.316l2.532-4.947c.838-1.624 1.665-3.23 2.572-4.755a93.367 93.367 0 0 1 5.71-8.451c1.95-2.601 3.888-4.999 5.721-7.228 1.833-2.229 3.591-4.266 5.267-6.059a73.678 73.678 0 0 1 11.052-9.754l.669-.471c.074-.057.152-.107.233-.152a.976.976 0 0 1-.209.181l-.646.506a73.42 73.42 0 0 0-2.474 1.95 77.107 77.107 0 0 0-8.427 7.926c-1.659 1.799-3.399 3.847-5.238 6.077a193.205 193.205 0 0 0-5.686 7.24 91.16 91.16 0 0 0-5.669 8.427 73.604 73.604 0 0 0-2.555 4.737l-2.532 4.947a190.68 190.68 0 0 0-8.677 19.265 92.567 92.567 0 0 0-4.581 16.622"/><path fill="#263238" d="M238.554 167.861a4.015 4.015 0 0 1-.146-.891 70.715 70.715 0 0 1-.215-2.444c-.145-2.061-.256-4.924-.367-8.073-.11-3.148-.262-6.006-.442-8.066a104.328 104.328 0 0 0-.227-2.433c-.052-.298-.07-.6-.052-.902.094.286.161.58.198.879.104.582.227 1.402.349 2.433.25 2.054.442 4.912.582 8.072.139 3.16.192 5.925.256 8.078.041.972.07 1.787.099 2.444a4.78 4.78 0 0 1-.035.903ZM265.303 164.735a5.272 5.272 0 0 1-1.065.058c-.681 0-1.665 0-2.91.082-2.433.099-5.82.343-9.493.785-3.672.443-7.024.984-9.422 1.45-1.199.221-2.165.43-2.835.582-.343.09-.693.151-1.047.18a6.09 6.09 0 0 1 1.012-.326 48.911 48.911 0 0 1 2.817-.692c2.387-.53 5.721-1.118 9.429-1.566a92.926 92.926 0 0 1 9.533-.669c1.222 0 2.211 0 2.91.035.359-.005.717.022 1.071.081ZM225.034 196.419a1.203 1.203 0 0 1-.157-.332l-.39-.989c-.332-.855-.78-2.113-1.309-3.667-1.066-3.113-2.404-7.461-3.818-12.274-1.415-4.813-2.707-9.172-3.708-12.303-.489-1.525-.896-2.777-1.193-3.708l-.32-1.007a1.353 1.353 0 0 1-.087-.36c.066.103.119.215.157.331.105.268.233.582.384.99.332.855.78 2.112 1.315 3.666 1.065 3.114 2.404 7.462 3.812 12.281 1.409 4.818 2.713 9.166 3.714 12.297.488 1.525.89 2.776 1.164 3.708l.32 1.006c.055.115.094.236.116.361ZM260.909 187.515c-.113.06-.235.101-.361.122l-1.042.273-3.841.961c-3.248.809-7.712 1.979-12.647 3.282-4.935 1.304-9.417 2.433-12.682 3.178-1.629.372-2.951.663-3.87.844l-1.059.204c-.122.03-.247.044-.373.04.113-.054.232-.093.355-.116l1.048-.274 3.841-.96c3.242-.809 7.711-1.985 12.647-3.288 4.935-1.304 9.417-2.433 12.676-3.178a141.03 141.03 0 0 1 3.87-.838l1.059-.204c.124-.03.251-.046.379-.046Z"/><path fill="#455A64" d="M223.3 43.76H82.159V237.16H223.3V43.761Z"/><path fill="#E0E0E0" d="M217.718 225.659H93.915V51.577h123.803v174.082Z"/><path fill="#EBEBEB" d="M215.763 222.429H93.071V49.279h122.692v173.15Z"/><path fill="#FAFAFA" d="m202.581 208.956-14.131 11.506H90.784V49.715h123.803v149.504l-12.006 9.737Z"/><path fill="#263238" d="M202.581 208.938s.25-.215.756-.628l2.264-1.851 8.957-7.293v.035c0-24.56-.046-79.152-.087-149.504l.134.14H90.802l.15-.152c0 64.195 0 123.414-.034 170.748l-.116-.123 97.665.07h-.035l10.616-8.608 2.66-2.147c.582-.477.89-.71.89-.71l-.873.727-2.66 2.206-10.581 8.649-97.7.081h-.122v-.122c0-47.334 0-106.553-.03-170.747v-.152h124.095v.134c-.041 70.376-.076 124.944-.087 149.504l-8.992 7.258-2.276 1.903-.791.582Z"/><path fill="#2196F3" d="M135.982 37.783h33.844a8.234 8.234 0 0 1 8.235 8.236v9.131h-50.669v-8.782a8.592 8.592 0 0 1 8.59-8.585Z"/><path fill="#2196F3" d="m139.806 37.783-1.851-9.37h29.176l-1.624 9.37h-25.701ZM124.587 97.776h-20.853V76.917h20.853v20.86Zm-20.271-.582h19.689V77.5h-19.689v19.695Z"/><path fill="#263238" d="M198.297 81.957c0 .082-14.521.152-32.423.152s-32.429-.07-32.429-.152c0-.081 14.515-.151 32.429-.151s32.423.064 32.423.151ZM198.297 86.287c0 .088-14.521.152-32.423.152s-32.429-.064-32.429-.152c0-.087 14.515-.151 32.429-.151s32.423.07 32.423.151ZM198.297 90.623c0 .082-14.521.152-32.423.152s-32.429-.07-32.429-.152c0-.081 14.515-.151 32.429-.151s32.423.07 32.423.151ZM198.297 94.96c0 .08-14.521.15-32.423.15s-32.429-.07-32.429-.15c0-.082 14.515-.152 32.429-.152s32.423.058 32.423.151Z"/><path fill="#2196F3" d="M124.587 129.92h-20.853v-20.859h20.853v20.859Zm-20.271-.582h19.689v-19.695h-19.689v19.695Z"/><path fill="#2196F3" d="m107.877 119.921 2.771-2.974 4.615 3.69 10.563-10.255 2.532 2.986-13.299 13.118-7.182-6.565Z"/><path fill="#263238" d="M198.297 114.101c0 .082-14.521.152-32.423.152s-32.429-.07-32.429-.152c0-.081 14.515-.151 32.429-.151s32.423.07 32.423.151ZM198.297 118.437c0 .082-14.521.152-32.423.152s-32.429-.07-32.429-.152c0-.081 14.515-.151 32.429-.151s32.423.064 32.423.151ZM198.297 122.767c0 .087-14.521.151-32.423.151s-32.429-.064-32.429-.151 14.515-.151 32.429-.151 32.423.07 32.423.151ZM198.297 127.103c0 .081-14.521.151-32.423.151s-32.429-.07-32.429-.151c0-.082 14.515-.151 32.429-.151s32.423.069 32.423.151Z"/><path fill="#2196F3" d="M124.587 161.028h-20.853v-20.859h20.853v20.859Zm-20.271-.582h19.689v-19.695h-19.689v19.695Z"/><path fill="#2196F3" d="m107.877 151.029 2.771-2.974 4.615 3.69 10.563-10.255 2.532 2.986-13.299 13.118-7.182-6.565Z"/><path fill="#263238" d="M198.297 145.209c0 .082-14.521.151-32.423.151s-32.429-.069-32.429-.151c0-.081 14.515-.151 32.429-.151s32.423.064 32.423.151ZM198.297 149.539c0 .088-14.521.152-32.423.152s-32.429-.064-32.429-.152c0-.087 14.515-.151 32.429-.151s32.423.07 32.423.151ZM198.297 153.875c0 .087-14.521.151-32.423.151s-32.429-.064-32.429-.151 14.515-.151 32.429-.151 32.423.069 32.423.151ZM198.297 158.211c0 .081-14.521.151-32.423.151s-32.429-.07-32.429-.151c0-.082 14.515-.151 32.429-.151s32.423.069 32.423.151Z"/><path fill="#2196F3" d="M124.587 191.065h-20.853v-20.859h20.853v20.859Zm-20.271-.582h19.689v-19.695h-19.689v19.695Z"/><path fill="#2196F3" d="m107.877 181.066 2.771-2.974 4.615 3.69 10.563-10.255 2.532 2.98-13.299 13.118-7.182-6.559Z"/><path fill="#263238" d="M198.297 175.24c0 .087-14.521.152-32.423.152s-32.429-.065-32.429-.152 14.515-.151 32.429-.151 32.423.093 32.423.151ZM198.297 179.576c0 .082-14.521.151-32.423.151s-32.429-.069-32.429-.151c0-.081 14.515-.151 32.429-.151s32.423.07 32.423.151ZM198.297 183.912c0 .082-14.521.151-32.423.151s-32.429-.069-32.429-.151c0-.081 14.515-.151 32.429-.151s32.423.064 32.423.151ZM198.297 188.242c0 .087-14.521.151-32.423.151s-32.429-.064-32.429-.151 14.515-.151 32.429-.151 32.423.07 32.423.151Z"/><path fill="#E0E0E0" d="m192.332 192.194-13.573 28.11h9.691l3.882-28.11Z"/><path fill="#FAFAFA" d="m188.449 220.462 3.882-28.111 22.256 6.868-26.138 21.243Z"/><path fill="#263238" d="m188.449 220.462 7.485-6.164 18.56-15.196.052.256-8.596-2.642-13.636-4.231.18-.116c-1.164 8.148-2.159 15.161-2.863 20.131-.704 4.836-1.065 7.333-1.164 7.962a1.366 1.366 0 0 1 0-.128l.052-.384c.047-.367.111-.879.198-1.531.181-1.368.437-3.329.763-5.82.675-5.011 1.618-12.059 2.718-20.294v-.163l.157.046 13.671 4.214 8.59 2.654.268.081-.215.175a15299.989 15299.989 0 0 1-18.787 15.132l-5.489 4.406-1.466 1.164-.373.296-.105.152Z"/><path fill="#000" d="m165.111 28.413-1.606 9.37h2.002l1.624-9.37h-2.555" opacity=".3"/><path fill="#FFBE9D" d="M79.656 127.237a5.23 5.23 0 0 0 3.88-1.313 5.25 5.25 0 0 0 1.748-3.704c.11-2.852.21-5.733.21-5.733s4.318-.401 4.656-4.656c.337-4.254.169-14.137.169-14.137a14.88 14.88 0 0 0-15.05.966l.261 15.039v8.096c.006 2.689 1.42 5.238 4.126 5.442Z"/><path fill="#263238" d="M85.866 106.593a2.198 2.198 0 0 0-2.91-.64 2.485 2.485 0 0 0-.826 3.108 3.263 3.263 0 0 0 2.095 1.583 1.643 1.643 0 0 1 1.286 1.746 5.472 5.472 0 0 1-1.501 2.974 7.884 7.884 0 0 1-4.947 2.328c-1.822.215-3.906-.163-4.965-1.659-.774-1.088-.826-2.514-.855-3.847l-.198-9.451a13.782 13.782 0 0 1 .215-3.394 4.563 4.563 0 0 1 1.793-2.805c1.041-.686 2.357-.745 3.538-1.123 1.484-.483 2.742-1.46 4.127-2.17 1.385-.71 3.078-1.136 4.47-.437 1 .5 1.67 1.495 2.636 2.048 1.385.786 3.265.582 3.934 2.642a3.422 3.422 0 0 1 0 2.171c-.937 2.765-4.359 3.882-6.827 2.689-.046.466.413 1.508-.081 2.986-.157.477-.21 1.193-.949 1.21"/><path fill="#263238" d="M74.07 97.776a14.548 14.548 0 0 0 1.373-4.295 4.922 4.922 0 0 0-1.345-4.15 4.073 4.073 0 0 0-2.817-.995 4.76 4.76 0 0 0-4.295 3.405 5.121 5.121 0 0 0 1.746 5.238 5.57 5.57 0 0 0 5.54.721"/><path fill="#2196F3" d="M74.907 96.234a2.107 2.107 0 0 1-2.025 1.978c0-.087.628-.256 1.164-.815.535-.558.78-1.187.861-1.163Z"/><path fill="#263238" d="M73.504 97.281c-.333.35-.728.636-1.163.844a3.346 3.346 0 0 1-1.525.437 2.134 2.134 0 0 1-1.787-.803 2.357 2.357 0 0 1-.314-1.933c.135-.517.379-.999.715-1.414a4.34 4.34 0 0 1 1.013-1.018c-.259.402-.539.79-.838 1.164a3.81 3.81 0 0 0-.617 1.35 2.129 2.129 0 0 0 .285 1.693 1.909 1.909 0 0 0 1.543.699 3.33 3.33 0 0 0 1.431-.35c.757-.39 1.228-.715 1.257-.669Z"/><path fill="#263238" d="M66.241 102.106c.088.148.156.306.204.471.15.436.365.848.634 1.223a1.745 1.745 0 0 0 1.67.768 2.332 2.332 0 0 0 1.613-1.624c.209-.814.355-1.643.436-2.479a3.848 3.848 0 0 1 .815-1.962 2.164 2.164 0 0 1 1.246-.71.815.815 0 0 1 .523.047s-.192 0-.5.07c-.437.12-.825.377-1.106.733a3.789 3.789 0 0 0-.704 1.862c-.067.857-.21 1.706-.425 2.538a2.546 2.546 0 0 1-1.845 1.798 1.742 1.742 0 0 1-1.164-.221 2.398 2.398 0 0 1-.733-.692 4.258 4.258 0 0 1-.582-1.31 1.363 1.363 0 0 1-.082-.512Z"/><path fill="#FFBE9D" d="M64.14 138.01s-2.182 15.958 0 17.983c2.183 2.026 4.272 1.351 4.272 1.351l4.15-3.492.814-15.866-9.236.024Z"/><path fill="#2196F3" d="m109.216 93.213 2.77-2.974 4.616 3.69 10.563-10.255 2.532 2.986-13.299 13.118-7.182-6.565Z"/><path fill="#FFBE9D" d="m122.23 94.022-4.016 2.578c-.181-1.589-1.391-3.16-1.333-2.363.058.798 0 4.936 0 4.936l-7.153 15.068c-.972 2.386-2.945 3.887-4.417 4.242l-6.699 1.991 2.613 8.84 9.312-3.084a8.016 8.016 0 0 0 5.093-5.104l6.402-19.509c.425-1.257.767-2.54 1.024-3.841.279-1.635-.826-3.754-.826-3.754Z"/><path fill="#2196F3" d="m89.33 258.827-.106-4.464-8.369.134.076 6.536.524.029c2.328.087 11.762.297 13.298-.192 1.712-.553-5.424-2.043-5.424-2.043Z"/><path fill="#fff" d="M83.969 260.922a2.91 2.91 0 0 0-1.1-1.746 2.81 2.81 0 0 0-1.967-.582l.035 2.328h3.032Z" opacity=".5"/><path fill="#fff" d="M92.792 259.682s2.503.675 2.2 1.095c-.303.419-9.859.582-14.084.256v-.187l11.15-.075s.274-1.06.734-1.089Z" opacity=".4"/><path fill="#263238" d="M80.809 260.841H81.367l1.525.04c1.287.03 3.062.041 5.023 0 1.961-.04 3.742-.093 5.023-.157l1.524-.087.414-.029h.14H94.456l-1.52.058c-1.286.041-3.06.099-5.022.128-1.961.029-3.737 0-5.023 0h-2.101l.018.047Z"/><path fill="#263238" d="M92.094 260.899c.06-.253.152-.497.273-.728a3.49 3.49 0 0 1 .507-.582 1.365 1.365 0 0 0-.78 1.321v-.011ZM89.603 259.682s.14-.128.262-.32.192-.366.168-.378c-.023-.012-.14.128-.256.32-.116.192-.198.367-.174.378ZM88.922 259.339s.145-.07.29-.204c.146-.133.24-.256.222-.273-.018-.018-.151.07-.291.198-.14.128-.245.256-.221.279ZM88.48 258.553c.139.051.289.067.436.047a.953.953 0 0 0 .437-.052 1.094 1.094 0 0 0-.437-.047.967.967 0 0 0-.436.052ZM88.322 258a.898.898 0 0 0 .49.134.891.891 0 0 0 .505-.075 2.615 2.615 0 0 0-.5 0 2.745 2.745 0 0 0-.495-.059Z"/><path fill="#263238" d="M89.882 258.949c.177.033.358.033.535 0 .198-.026.393-.071.582-.134a1.75 1.75 0 0 0 .326-.139.28.28 0 0 0 .134-.169.221.221 0 0 0-.087-.215.997.997 0 0 0-1.216.308 1.073 1.073 0 0 0-.17.361.347.347 0 0 0 0 .145c.056-.164.137-.319.24-.459.12-.143.277-.25.453-.309a.856.856 0 0 1 .646.035c.082.064.053.163-.04.221a1.758 1.758 0 0 1-.303.134c-.19.066-.384.116-.582.151-.32.053-.518.053-.518.07Z"/><path fill="#263238" d="M90.016 258.99a.52.52 0 0 0 .058-.373.936.936 0 0 0-.157-.39.548.548 0 0 0-.448-.267.195.195 0 0 0-.076.032.206.206 0 0 0-.087.218.587.587 0 0 0 .093.239c.07.119.159.227.262.32.083.096.19.17.308.215 0 0-.104-.093-.256-.262a2.127 2.127 0 0 1-.232-.32c-.076-.111-.128-.314 0-.343.128-.029.273.116.355.221a.942.942 0 0 1 .163.349c.016.12.021.24.017.361ZM80.948 258.548h.617a2.617 2.617 0 0 1 2.218 1.711c.133.355.15.582.168.582a.422.422 0 0 0 0-.169 2.464 2.464 0 0 0-.099-.448 2.554 2.554 0 0 0-2.281-1.746 2.08 2.08 0 0 0-.46 0 .444.444 0 0 0-.163.07Z"/><path fill="#263238" d="M81.763 255.056c-.052.57-.067 1.144-.046 1.717a14.12 14.12 0 0 0 .052 1.746 13.59 13.59 0 0 0 .046-1.746 15.617 15.617 0 0 0-.052-1.717ZM85.005 260.09c.404.083.816.116 1.228.099.41.017.822-.022 1.222-.116 0-.03-.582 0-1.222 0s-1.222-.012-1.228.017ZM83.37 260.107l.098.245c.053.128.093.233.123.233.029 0 .04-.134-.03-.28-.07-.145-.174-.215-.192-.198ZM82.735 259.351s.035.105.128.192c.093.087.175.14.192.122.018-.017-.035-.111-.122-.192s-.175-.145-.198-.122ZM81.845 258.99s.122 0 .244.064.21.105.233.087c.023-.017-.047-.133-.204-.18a.34.34 0 0 0-.273.029ZM81.216 258.856s.035.07.105.093c.07.024.134.029.145 0 .012-.029-.04-.07-.11-.093-.07-.023-.134-.029-.14 0Z"/><path fill="#2196F3" d="m59.787 257.401 2.84-3.451-6.437-5.36-4.202 5.005.373.361c1.693 1.577 8.73 7.897 10.208 8.526 1.659.704-2.782-5.081-2.782-5.081Z"/><path fill="#fff" d="M54.38 255.498a2.91 2.91 0 0 0 .32-2.055 2.805 2.805 0 0 0-1.117-1.716l-1.531 1.786 2.328 1.985Z" opacity=".5"/><path fill="#fff" d="M61.876 260.323s1.455 2.147.955 2.264c-.5.116-7.869-6.007-10.843-8.992l.128-.134 8.503 7.217s.867-.652 1.257-.355Z" opacity=".4"/><path fill="#263238" d="m52.017 253.374.099.104.303.285 1.129 1.025c.954.855 2.293 2.025 3.8 3.282a192.516 192.516 0 0 0 3.911 3.161l1.21.925.332.244.123.082-.11-.099-.32-.262-1.165-.949a226.83 226.83 0 0 1-7.711-6.437l-1.164-1.001-.315-.273-.122-.087Z"/><path fill="#263238" d="M60.532 260.777c.212-.155.443-.282.687-.379.251-.064.508-.103.768-.116a1.167 1.167 0 0 0-.803 0 1.16 1.16 0 0 0-.652.495ZM59.438 258.227c0 .03.192 0 .407-.075.215-.076.39-.146.378-.175-.011-.029-.192 0-.407.076a.982.982 0 0 0-.378.174ZM59.147 257.518s.157.046.355.04c.198-.006.349-.035.349-.064 0-.029-.163-.046-.355-.04a.776.776 0 0 0-.35.064ZM59.321 256.662s.117.163.303.32c.105.106.23.191.367.25 0 0-.117-.168-.303-.326-.186-.157-.343-.291-.367-.244ZM59.566 256.115a1.21 1.21 0 0 0 .715.692 3.912 3.912 0 0 0-.36-.343c-.192-.186-.303-.384-.355-.349Z"/><path fill="#263238" d="M60.124 257.826c.116.139.256.255.413.343.166.107.341.197.524.268.108.049.222.086.338.11a.283.283 0 0 0 .21-.046.208.208 0 0 0 .075-.215.988.988 0 0 0-1.123-.582.89.89 0 0 0-.367.163.386.386 0 0 0-.105.098c.15-.09.313-.155.483-.192a.985.985 0 0 1 .547.064c.208.081.375.24.466.443 0 .105-.064.163-.175.145a1.927 1.927 0 0 1-.314-.099 3.312 3.312 0 0 1-.518-.244c-.285-.111-.442-.256-.454-.256Z"/><path fill="#263238" d="M60.2 257.96s.151-.047.291-.245a.964.964 0 0 0 .14-.396.58.58 0 0 0-.17-.5.212.212 0 0 0-.163-.016.213.213 0 0 0-.127.103.583.583 0 0 0-.082.239 1.679 1.679 0 0 0 0 .413c0 .128.032.254.093.367v-.367c-.001-.133.01-.265.035-.396 0-.134.105-.32.227-.256.123.064.128.268.128.402a.9.9 0 0 1-.11.366 1.73 1.73 0 0 1-.262.286ZM53.618 251.727s.198.133.46.407c.34.36.576.807.68 1.292.097.486.056.99-.116 1.455-.134.361-.28.553-.262.582a.545.545 0 0 0 .11-.134 2.545 2.545 0 0 0 .367-1.903 2.573 2.573 0 0 0-.727-1.321 2.159 2.159 0 0 0-.361-.285.456.456 0 0 0-.151-.093ZM56.516 249.602c-.413.401-.802.827-1.164 1.275-.384.427-.745.874-1.082 1.338.416-.396.804-.82 1.163-1.268.384-.43.745-.878 1.083-1.345ZM55.69 255.539c.248.326.538.62.86.873.303.281.642.519 1.008.71 0 0-.425-.349-.937-.786-.513-.436-.908-.838-.931-.797Z"/><path fill="#263238" d="M54.432 254.485s-.04.117-.075.251c-.035.133-.088.232-.064.25.023.017.116-.07.163-.227.046-.157.005-.28-.024-.274ZM54.45 253.496c-.03 0-.04.105-.03.227.012.122.041.221.07.221.03 0 .041-.105 0-.227-.04-.122-.011-.221-.04-.221ZM53.996 252.658c0 .029.075.099.14.209.064.111.093.221.122.221.029 0 .046-.133-.035-.273-.082-.14-.215-.181-.227-.157ZM53.618 252.128v.146c0 .064.087.104.11.093.023-.012 0-.082 0-.146 0-.064-.087-.104-.11-.093ZM77.206 163.885s-2.788 11.792-1.996 14.125c.791 2.334 5.895 3.679 5.895 3.679l-.174 32.295-28.239 34.92 10.418 8.52s30.578-34.972 33.273-41.322c2.695-6.349-1.746-52.758-1.746-52.758l-17.431.541Z"/><path fill="#263238" d="m91.628 159.078 1.38 98.079-14.358.087-7.212-79.897c-1.524-1.455-3.672-3.946-3.375-9.504l.35-6.455 23.215-2.31Z"/><path fill="#455A64" d="M76.496 219.443a.67.67 0 0 1 .082-.146c.075-.104.162-.238.273-.401l1.065-1.508 3.9-5.401v.076c-.315-3.405-.693-7.531-1.1-11.983-.524-5.82-.943-11.116-1.194-14.952-.128-1.915-.209-3.463-.256-4.534 0-.512-.035-.925-.04-1.239a1.746 1.746 0 0 1 0-.431c.028.142.045.286.052.431 0 .308.058.721.099 1.234.087 1.1.204 2.636.355 4.528.303 3.823.757 9.102 1.28 14.934.39 4.469.786 8.59 1.048 12.012V212.139l-3.987 5.331-1.123 1.472-.303.379c-.122.093-.15.128-.15.122ZM80.896 178.924a19.514 19.514 0 0 1-3.806-.582 19.491 19.491 0 0 1-3.714-1.012c1.273.163 2.534.402 3.778.715a33.79 33.79 0 0 1 3.742.879ZM90.732 212.43a14.61 14.61 0 0 0-3.876-1.013 14.656 14.656 0 0 0-3.993.39c.341-.215.72-.363 1.118-.436a8.753 8.753 0 0 1 2.91-.256 8.854 8.854 0 0 1 2.816.704 3.36 3.36 0 0 1 1.025.611ZM95.801 216.958c.064.052-3.975 5.477-9.027 12.111-5.052 6.635-9.201 11.984-9.265 11.937-.064-.046 3.975-5.476 9.027-12.117 5.051-6.641 9.201-11.983 9.265-11.931ZM93.857 166.359a2.47 2.47 0 0 1-.809 1.071 4.011 4.011 0 0 1-5.855-.617 2.366 2.366 0 0 1-.582-1.217c.224.373.47.732.734 1.077a3.989 3.989 0 0 0 5.558.582c.333-.282.652-.581.954-.896Z"/><path fill="#263238" d="M74.226 115.894a12.526 12.526 0 0 1-.68-17.46"/><path fill="#2196F3" d="M66.154 125.043s-3.12 3.527-3.766 17.012c0 0 8.888 1.687 9.05 1.204.163-.483-5.284-18.216-5.284-18.216Z"/><path fill="#000" d="M66.154 125.043s-3.12 3.527-3.766 17.012c0 0 8.888 1.687 9.05 1.204.163-.483-5.284-18.216-5.284-18.216Z" opacity=".3"/><path fill="#2196F3" d="M67.597 164.322h27.29l-.442-4.266s-3.12-16.215-3.096-16.43l.489-1.03a10.289 10.289 0 0 0 .122-8.585l13.386-4.568-3.271-11.024c-6.065 1.019-15.231 2.165-15.231 2.165l-1.362.111s-9.463.495-9.667.518c-3.958.483-8.561.786-10.243 5.023-.902 2.264-.047 5.663 1.426 9.166l3.492 10.767c1.397 5.919-.832 5.634-2.06 11.594-.198.896-.85 5.732-.833 6.559Z"/><path fill="#000" d="M67.597 164.322h27.29l-.442-4.266s-3.12-16.215-3.096-16.43l.489-1.03a10.289 10.289 0 0 0 .122-8.585l13.386-4.568-3.271-11.024c-6.065 1.019-15.231 2.165-15.231 2.165l-1.362.111s-9.463.495-9.667.518c-3.958.483-8.561.786-10.243 5.023-.902 2.264-.047 5.663 1.426 9.166l3.492 10.767c1.397 5.919-.832 5.634-2.06 11.594-.198.896-.85 5.732-.833 6.559Z" opacity=".3"/><path fill="#263238" d="M105.194 129.623a2.91 2.91 0 0 1-.582.25c-.384.14-.948.332-1.647.582-1.396.472-3.34 1.094-5.482 1.781-2.142.687-4.074 1.368-5.413 1.927-.686.279-1.228.523-1.606.686-.183.102-.379.18-.582.233.17-.134.353-.249.547-.343.367-.192.896-.472 1.572-.774a53.083 53.083 0 0 1 5.406-2.014c2.148-.687 4.074-1.28 5.512-1.699.704-.21 1.28-.373 1.676-.483.193-.074.394-.123.599-.146Z"/><path fill="#FAFAFA" d="M103.611 123.751c0 .081-8.072.151-18.042.151-9.97 0-18.042-.07-18.042-.151 0-.082 8.067-.152 18.042-.152 9.976 0 18.042.07 18.042.152ZM104.432 129.111c0 .081-8.98.151-20.056.151-11.075 0-20.05-.07-20.05-.151 0-.082 8.975-.152 20.05-.152 11.076 0 20.056.07 20.056.152ZM66.602 135.21a4.859 4.859 0 0 1-1.676.152 4.826 4.826 0 0 1-1.67-.152 4.801 4.801 0 0 1 1.67-.151 4.834 4.834 0 0 1 1.676.151ZM92.792 135.396c0 .082-5.872.152-13.112.152s-13.113-.07-13.113-.152c0-.081 5.867-.151 13.113-.151 7.245 0 13.112.064 13.112.151ZM92.21 141.676c0 .088-5.273.152-11.768.152-6.495 0-11.774-.064-11.774-.152 0-.087 5.267-.151 11.774-.151 6.507 0 11.768.07 11.768.151ZM92.047 147.502c0 .081-4.772.151-10.662.151-5.89 0-10.674-.07-10.674-.151 0-.082 4.778-.151 10.674-.151 5.895 0 10.662.064 10.662.151ZM92.984 152.21c0 .088-5.11.152-11.413.152s-11.413-.064-11.413-.152c0-.087 5.11-.151 11.413-.151s11.413.07 11.413.151ZM94.463 158.217c0 .087-5.82.151-12.985.151-7.164 0-12.984-.064-12.984-.151 0-.088 5.82-.152 12.984-.152 7.165 0 12.985.07 12.985.152Z"/><path fill="#263238" d="M70.31 145.663a1.829 1.829 0 0 1-.245-.535l-.582-1.49c-.483-1.258-1.164-2.992-1.862-4.93-.699-1.938-1.287-3.707-1.653-5.005-.18-.652-.32-1.164-.396-1.548a2.495 2.495 0 0 1-.1-.582c.27.676.503 1.365.7 2.066.418 1.28 1.03 3.038 1.745 4.97.716 1.932 1.345 3.678 1.746 4.959.216.64.379 1.164.483 1.525.079.182.133.374.163.57Z"/></g><defs><filter id="b" width="299" height="299" x="-2" y="0" color-interpolation-filters="sRGB" filterUnits="userSpaceOnUse"><feFlood flood-opacity="0" result="BackgroundImageFix"/><feColorMatrix in="SourceAlpha" result="hardAlpha" values="0 0 0 0 0 0 0 0 0 0 0 0 0 0 0 0 0 0 127 0"/><feOffset dy="4"/><feGaussianBlur stdDeviation="2"/><feComposite in2="hardAlpha" operator="out"/><feColorMatrix values="0 0 0 0 0 0 0 0 0 0 0 0 0 0 0 0 0 0 0.25 0"/><feBlend in2="BackgroundImageFix" result="effect1_dropShadow_1_328"/><feBlend in="SourceGraphic" in2="effect1_dropShadow_1_328" result="shape"/></filter><filter id="c" width="325.199" height="54.502" x="-15.1" y="243.93" color-interpolation-filters="sRGB" filterUnits="userSpaceOnUse"><feFlood flood-opacity="0" result="BackgroundImageFix"/><feBlend in="SourceGraphic" in2="BackgroundImageFix" result="shape"/><feGaussianBlur result="effect1_foregroundBlur_1_328" stdDeviation="10"/></filter><clipPath id="a"><path fill="#fff" d="M2 0h291v291H2z"/></clipPath></defs></svg>